# Blender v2.78 (sub 0) OBJ File: ''
# www.blender.org
mtllib sombra_ultimate_dome.mtl
o Plane
v 0.274554 0.937385 0.274554
v -0.274554 0.937385 -0.274554
v 0.000000 0.937385 -0.388278
v -0.662831 -0.388278 -0.662831
v 0.000000 -0.388278 -0.937385
v 0.000000 0.000000 -1.014618
v -0.717443 0.000000 -0.717443
v 0.662831 -0.388278 0.662831
v 0.000000 -0.388278 0.937385
v 0.000000 -0.000000 1.014618
v 0.717443 -0.000000 0.717443
v 0.662831 -0.388278 -0.662831
v 0.937385 -0.388278 -0.000000
v 1.014618 0.000000 0.000000
v 0.717443 0.000000 -0.717443
v 0.274554 -0.937385 -0.274554
v 0.388278 -0.937385 -0.000000
v 0.717443 -0.717443 -0.000000
v 0.507309 -0.717443 -0.507309
v 0.274554 -0.937385 0.274554
v 0.000000 -0.937385 0.388278
v 0.000000 -0.717443 0.717443
v 0.507309 -0.717443 0.507309
v -0.662831 -0.388278 0.662831
v -0.937385 -0.388278 -0.000000
v -1.014618 0.000000 0.000000
v -0.717444 -0.000000 0.717444
v -0.274554 -0.937385 0.274554
v -0.388278 -0.937385 -0.000000
v -0.717443 -0.717443 -0.000000
v -0.507309 -0.717443 0.507309
v -0.274554 -0.937385 -0.274554
v 0.000000 -0.937385 -0.388278
v 0.000000 -0.717443 -0.717443
v -0.507309 -0.717443 -0.507309
v -0.274554 0.937385 0.274554
v -0.388278 0.937385 0.000000
v -0.662831 0.388278 0.662831
v -0.937385 0.388278 0.000000
v -0.717443 0.717443 0.000000
v -0.507309 0.717444 0.507309
v -0.662831 0.388278 -0.662831
v 0.000000 0.388278 -0.937385
v 0.000000 0.717443 -0.717443
v -0.507309 0.717443 -0.507309
v 0.274554 0.937385 -0.274554
v 0.388278 0.937385 0.000000
v 0.000000 1.014618 0.000000
v 0.662831 0.388278 -0.662831
v 0.937385 0.388278 0.000000
v 0.717443 0.717443 0.000000
v 0.507309 0.717443 -0.507309
v 0.662831 0.388278 0.662831
v 0.507309 0.717443 0.507309
v 0.000000 0.388278 0.937385
v 0.000000 0.717443 0.717443
v 0.000000 0.937385 0.388278
v 0.000000 -1.014618 -0.000000
v 0.277542 0.946448 0.277542
v -0.277542 0.946448 -0.277542
v 0.000000 0.946448 -0.392503
v -0.669409 -0.391946 -0.669409
v 0.000000 -0.391946 -0.946688
v 0.000000 0.000000 -1.024618
v -0.724514 0.000000 -0.724514
v 0.669409 -0.391946 0.669409
v 0.000000 -0.391946 0.946688
v 0.000000 -0.000000 1.024618
v 0.724514 -0.000000 0.724514
v 0.669409 -0.391946 -0.669409
v 0.946688 -0.391946 -0.000000
v 1.024618 0.000000 0.000000
v 0.724514 0.000000 -0.724514
v 0.277542 -0.946448 -0.277542
v 0.392504 -0.946448 -0.000000
v 0.724739 -0.724281 -0.000000
v 0.512468 -0.724281 -0.512468
v 0.277542 -0.946448 0.277542
v 0.000000 -0.946448 0.392503
v 0.000000 -0.724281 0.724739
v 0.512468 -0.724281 0.512468
v -0.669409 -0.391946 0.669409
v -0.946688 -0.391946 -0.000000
v -1.024618 0.000000 0.000000
v -0.724515 -0.000000 0.724515
v -0.277542 -0.946448 0.277542
v -0.392504 -0.946448 -0.000000
v -0.724739 -0.724281 -0.000000
v -0.512468 -0.724281 0.512468
v -0.277542 -0.946448 -0.277542
v 0.000000 -0.946448 -0.392504
v 0.000000 -0.724281 -0.724739
v -0.512468 -0.724281 -0.512468
v -0.277542 0.946448 0.277542
v -0.392504 0.946448 0.000000
v -0.669409 0.391946 0.669409
v -0.946688 0.391946 0.000000
v -0.724739 0.724281 0.000000
v -0.512468 0.724282 0.512468
v -0.669409 0.391946 -0.669409
v 0.000000 0.391946 -0.946688
v 0.000000 0.724281 -0.724739
v -0.512468 0.724281 -0.512468
v 0.277542 0.946448 -0.277542
v 0.392504 0.946448 0.000000
v 0.000000 1.024618 0.000000
v 0.669409 0.391946 -0.669409
v 0.946688 0.391946 0.000000
v 0.724739 0.724281 0.000000
v 0.512468 0.724281 -0.512468
v 0.669409 0.391946 0.669409
v 0.512468 0.724281 0.512468
v 0.000000 0.391946 0.946688
v 0.000000 0.724281 0.724739
v 0.000000 0.946448 0.392504
v 0.000000 -1.024618 -0.000000
vt 0.1253 0.1251
vt 0.0004 0.1250
vt 0.1254 0.0001
vt 0.6251 0.1252
vt 0.5001 0.1252
vt 0.6251 0.0003
vt 0.6249 0.6250
vt 0.5000 0.6249
vt 0.5000 0.5000
vt 0.6249 0.5000
vt 0.1252 0.6248
vt 0.0002 0.6248
vt 0.0003 0.4998
vt 0.1252 0.4999
vt 0.3750 0.6249
vt 0.2501 0.6248
vt 0.2501 0.4999
vt 0.3751 0.5000
vt 0.3749 0.8748
vt 0.2500 0.8747
vt 0.2500 0.7498
vt 0.3750 0.7498
vt 0.1251 0.8747
vt 0.0001 0.8746
vt 0.0002 0.7497
vt 0.1251 0.7497
vt 0.8748 0.6251
vt 0.7498 0.6250
vt 0.7499 0.5001
vt 0.8748 0.5001
vt 0.8747 0.8749
vt 0.7497 0.8749
vt 0.7498 0.7500
vt 0.8747 0.7500
vt 0.6248 0.8748
vt 0.4999 0.8748
vt 0.4999 0.7499
vt 0.6248 0.7499
vt 0.8749 0.1253
vt 0.7500 0.1253
vt 0.8750 0.0004
vt 0.8748 0.3752
vt 0.7499 0.3752
vt 0.7500 0.2502
vt 0.8749 0.2503
vt 0.6250 0.3751
vt 0.5000 0.3751
vt 0.5001 0.2501
vt 0.6250 0.2502
vt 0.3752 0.1252
vt 0.2503 0.1251
vt 0.3752 0.0002
vt 0.3751 0.3750
vt 0.2502 0.3750
vt 0.2502 0.2500
vt 0.3752 0.2501
vt 0.1252 0.3749
vt 0.0003 0.3749
vt 0.0004 0.2500
vt 0.1253 0.2500
vt 0.5002 0.0003
vt 0.9998 0.3752
vt 0.9998 0.2503
vt 0.9997 0.5002
vt 0.9999 0.1254
vt 0.9999 0.0004
vt 0.6248 0.9998
vt 0.4998 0.9997
vt 0.9996 0.8750
vt 0.9996 0.7500
vt 0.8746 0.9999
vt 0.7497 0.9998
vt 0.9997 0.6251
vt 0.1250 0.9996
vt 0.0001 0.9996
vt 0.3749 0.9997
vt 0.2500 0.9996
vt 0.7500 0.0004
vt 0.2503 0.0002
vt 0.1253 0.1251
vt 0.1254 0.0001
vt 0.0004 0.1250
vt 0.6251 0.1252
vt 0.6251 0.0003
vt 0.5001 0.1252
vt 0.6249 0.6250
vt 0.6249 0.5000
vt 0.5000 0.5000
vt 0.5000 0.6249
vt 0.1252 0.6248
vt 0.1252 0.4999
vt 0.0003 0.4998
vt 0.0002 0.6248
vt 0.3750 0.6249
vt 0.3751 0.5000
vt 0.2501 0.4999
vt 0.2501 0.6248
vt 0.3749 0.8748
vt 0.3750 0.7498
vt 0.2500 0.7498
vt 0.2500 0.8747
vt 0.1251 0.8747
vt 0.1251 0.7497
vt 0.0002 0.7497
vt 0.0001 0.8746
vt 0.8748 0.6251
vt 0.8748 0.5001
vt 0.7499 0.5001
vt 0.7498 0.6250
vt 0.8747 0.8749
vt 0.8747 0.7500
vt 0.7498 0.7500
vt 0.7497 0.8749
vt 0.6248 0.8748
vt 0.6248 0.7499
vt 0.4999 0.7499
vt 0.4999 0.8748
vt 0.8749 0.1253
vt 0.8750 0.0004
vt 0.7500 0.1253
vt 0.8748 0.3752
vt 0.8749 0.2503
vt 0.7500 0.2502
vt 0.7499 0.3752
vt 0.6250 0.3751
vt 0.6250 0.2502
vt 0.5001 0.2501
vt 0.5000 0.3751
vt 0.3752 0.1252
vt 0.3752 0.0002
vt 0.2503 0.1251
vt 0.3751 0.3750
vt 0.3752 0.2501
vt 0.2502 0.2500
vt 0.2502 0.3750
vt 0.1252 0.3749
vt 0.1253 0.2500
vt 0.0004 0.2500
vt 0.0003 0.3749
vt 0.5002 0.0003
vt 0.9998 0.3752
vt 0.9998 0.2503
vt 0.9997 0.5002
vt 0.9999 0.1254
vt 0.9999 0.0004
vt 0.6248 0.9998
vt 0.4998 0.9997
vt 0.9996 0.8750
vt 0.9996 0.7500
vt 0.8746 0.9999
vt 0.7497 0.9998
vt 0.9997 0.6251
vt 0.1250 0.9996
vt 0.0001 0.9996
vt 0.3749 0.9997
vt 0.2500 0.9996
vt 0.7500 0.0004
vt 0.2503 0.0002
vn -0.0805 -0.9776 -0.1945
vn 0.0000 -0.9808 -0.1951
vn 0.0805 -0.9776 0.1945
vn 0.3764 0.1807 0.9087
vn -0.3764 0.1807 -0.9087
vn -0.0000 0.1951 -0.9808
vn -0.9087 0.1807 0.3764
vn -0.5414 0.8103 0.2243
vn -0.2243 0.8103 -0.5414
vn 0.0000 0.8315 -0.5556
vn 0.9087 0.1807 -0.3764
vn 0.5414 0.8103 -0.2243
vn 0.2243 0.8103 0.5414
vn 0.1945 -0.9776 -0.0805
vn 0.7862 -0.5253 -0.3256
vn 0.3256 -0.5253 0.7862
vn -0.1945 -0.9776 0.0805
vn -0.7862 -0.5253 0.3256
vn -0.3256 -0.5253 -0.7862
vn -0.0000 -0.5556 -0.8315
vn -0.7862 -0.5253 -0.3256
vn -0.9087 -0.1807 -0.3764
vn -0.3764 -0.1807 -0.9087
vn -0.0000 -0.1951 -0.9808
vn -0.3256 -0.5253 0.7862
vn -0.3764 -0.1807 0.9087
vn -0.9087 -0.1807 0.3764
vn -0.0805 -0.9776 0.1945
vn -0.2243 -0.8103 0.5414
vn -0.5414 -0.8103 0.2243
vn 0.7862 -0.5253 0.3256
vn 0.9087 -0.1807 0.3764
vn 0.3764 -0.1807 0.9087
vn 0.3256 -0.5253 -0.7862
vn 0.3764 -0.1807 -0.9087
vn 0.9087 -0.1807 -0.3764
vn 0.0805 -0.9776 -0.1945
vn -0.0000 -0.8315 -0.5556
vn 0.2243 -0.8103 -0.5414
vn 0.5414 -0.8103 -0.2243
vn 0.5414 0.8103 0.2243
vn 0.1945 0.9776 0.0805
vn 0.0805 0.9776 0.1945
vn 0.2243 0.8103 -0.5414
vn 0.0000 0.9808 -0.1951
vn 0.0805 0.9776 -0.1945
vn 0.1945 0.9776 -0.0805
vn 0.3764 0.1807 -0.9087
vn 0.0000 0.5556 -0.8315
vn 0.3256 0.5253 -0.7862
vn 0.7862 0.5253 -0.3256
vn -0.5414 0.8103 -0.2243
vn -0.1945 0.9776 -0.0805
vn -0.0805 0.9776 -0.1945
vn -0.2243 0.8103 0.5414
vn -0.0805 0.9776 0.1945
vn -0.1945 0.9776 0.0805
vn -0.3764 0.1807 0.9087
vn -0.3256 0.5253 0.7862
vn -0.7862 0.5253 0.3256
vn -0.9087 0.1807 -0.3764
vn -0.7862 0.5253 -0.3256
vn -0.3256 0.5253 -0.7862
vn 0.9087 0.1807 0.3764
vn 0.7862 0.5253 0.3256
vn 0.3256 0.5253 0.7862
vn 0.1945 -0.9776 0.0805
vn 0.5414 -0.8103 0.2243
vn 0.2243 -0.8103 0.5414
vn -0.1945 -0.9776 -0.0805
vn -0.5414 -0.8103 -0.2243
vn -0.2243 -0.8103 -0.5414
vn 0.0806 0.9775 0.1947
vn 0.0000 0.9807 0.1953
vn -0.0806 0.9775 -0.1947
vn 0.0000 -0.1950 0.9808
vn 0.5417 -0.8101 -0.2244
vn 0.2244 -0.8101 0.5417
vn 0.0000 -0.8313 0.5559
vn -0.5417 -0.8101 0.2244
vn -0.2244 -0.8101 -0.5417
vn -0.1947 0.9775 0.0806
vn -0.7863 0.5251 0.3257
vn -0.3257 0.5251 -0.7863
vn 0.1947 0.9775 -0.0806
vn 0.7863 0.5251 -0.3257
vn 0.3257 0.5251 0.7863
vn -0.0000 0.5554 0.8316
vn 0.7863 0.5251 0.3257
vn 0.0000 0.1950 0.9808
vn 0.3257 0.5251 -0.7863
vn 0.0806 0.9775 -0.1947
vn 0.2244 0.8101 -0.5417
vn 0.5417 0.8101 -0.2244
vn -0.7863 0.5251 -0.3257
vn -0.3257 0.5251 0.7863
vn -0.0806 0.9775 0.1947
vn 0.0000 0.8313 0.5559
vn -0.2244 0.8101 0.5417
vn -0.5417 0.8101 0.2244
vn -0.5417 -0.8101 -0.2244
vn -0.1947 -0.9775 -0.0806
vn -0.0806 -0.9775 -0.1947
vn -0.2244 -0.8101 0.5417
vn 0.0000 -0.9807 0.1953
vn -0.0806 -0.9775 0.1947
vn -0.1947 -0.9775 0.0806
vn 0.0000 -0.5554 0.8316
vn -0.3257 -0.5251 0.7863
vn -0.7863 -0.5251 0.3257
vn 0.5417 -0.8101 0.2244
vn 0.1947 -0.9775 0.0806
vn 0.0806 -0.9775 0.1947
vn 0.2244 -0.8101 -0.5417
vn 0.0806 -0.9775 -0.1947
vn 0.1947 -0.9775 -0.0806
vn 0.3257 -0.5251 -0.7863
vn 0.7863 -0.5251 -0.3257
vn 0.7863 -0.5251 0.3257
vn 0.3257 -0.5251 0.7863
vn -0.7863 -0.5251 -0.3257
vn -0.3257 -0.5251 -0.7863
vn -0.1947 0.9775 -0.0806
vn -0.5417 0.8101 -0.2244
vn -0.2244 0.8101 -0.5417
vn 0.1947 0.9775 0.0806
vn 0.5417 0.8101 0.2244
vn 0.2244 0.8101 0.5417
usemtl Material.001
f 1/1/1 57/2/2 48/3/2
f 2/4/3 3/5/3 48/6/3
f 4/7/4 5/8/4 6/9/4 7/10/4
f 8/11/5 9/12/6 10/13/6 11/14/5
f 12/15/7 13/16/7 14/17/7 15/18/7
f 16/19/8 17/20/8 18/21/8 19/22/8
f 20/23/9 21/24/10 22/25/10 23/26/9
f 24/27/11 25/28/11 26/29/11 27/30/11
f 28/31/12 29/32/12 30/33/12 31/34/12
f 32/35/13 33/36/13 34/37/13 35/38/13
f 36/39/14 37/40/14 48/41/14
f 38/42/15 39/43/15 40/44/15 41/45/15
f 42/46/16 43/47/16 44/48/16 45/49/16
f 46/50/17 47/51/17 48/52/17
f 49/53/18 50/54/18 51/55/18 52/56/18
f 53/57/19 55/58/20 56/59/20 54/60/19
f 50/54/21 53/57/21 54/60/21 51/55/21
f 14/17/22 11/14/22 53/57/22 50/54/22
f 11/14/23 10/13/24 55/58/24 53/57/23
f 43/47/25 49/53/25 52/56/25 44/48/25
f 6/9/26 15/18/26 49/53/26 43/47/26
f 15/18/27 14/17/27 50/54/27 49/53/27
f 3/5/28 46/50/28 48/61/28
f 44/48/29 52/56/29 46/50/29 3/5/29
f 52/56/30 51/55/30 47/51/30 46/50/30
f 39/43/31 42/46/31 45/49/31 40/44/31
f 26/29/32 7/10/32 42/46/32 39/43/32
f 7/10/33 6/9/33 43/47/33 42/46/33
f 55/62/20 38/42/34 41/45/34 56/63/20
f 10/64/24 27/30/35 38/42/35 55/62/24
f 27/30/36 26/29/36 39/43/36 38/42/36
f 57/65/2 36/39/37 48/66/2
f 56/63/38 41/45/39 36/39/39 57/65/38
f 41/45/40 40/44/40 37/40/40 36/39/40
f 29/32/41 32/35/41 35/38/41 30/33/41
f 58/67/42 32/35/42 29/32/42
f 58/68/43 33/36/43 32/35/43
f 21/69/10 28/31/44 31/34/44 22/70/10
f 58/71/45 28/31/46 21/69/45
f 58/72/47 29/32/47 28/31/47
f 9/73/6 24/27/48 27/30/48 10/64/6
f 22/70/49 31/34/50 24/27/50 9/73/49
f 31/34/51 30/33/51 25/28/51 24/27/51
f 17/20/52 20/23/52 23/26/52 18/21/52
f 58/74/53 20/23/53 17/20/53
f 58/75/45 21/24/45 20/23/54
f 33/36/55 16/19/55 19/22/55 34/37/55
f 58/76/56 16/19/56 33/36/56
f 58/77/57 17/20/57 16/19/57
f 5/8/58 12/15/58 15/18/58 6/9/58
f 34/37/59 19/22/59 12/15/59 5/8/59
f 19/22/60 18/21/60 13/16/60 12/15/60
f 13/16/61 8/11/61 11/14/61 14/17/61
f 18/21/62 23/26/62 8/11/62 13/16/62
f 23/26/63 22/25/49 9/12/49 8/11/63
f 25/28/64 4/7/64 7/10/64 26/29/64
f 30/33/65 35/38/65 4/7/65 25/28/65
f 35/38/66 34/37/66 5/8/66 4/7/66
f 37/40/67 2/4/67 48/78/67
f 40/44/68 45/49/68 2/4/68 37/40/68
f 45/49/69 44/48/69 3/5/69 2/4/69
f 47/51/70 1/1/70 48/79/70
f 51/55/71 54/60/71 1/1/71 47/51/71
f 54/60/72 56/59/38 57/2/38 1/1/72
f 59/80/73 106/81/74 115/82/74
f 60/83/75 106/84/75 61/85/75
f 62/86/23 65/87/23 64/88/23 63/89/23
f 66/90/33 69/91/33 68/92/76 67/93/76
f 70/94/36 73/95/36 72/96/36 71/97/36
f 74/98/77 77/99/77 76/100/77 75/101/77
f 78/102/78 81/103/78 80/104/79 79/105/79
f 82/106/27 85/107/27 84/108/27 83/109/27
f 86/110/80 89/111/80 88/112/80 87/113/80
f 90/114/81 93/115/81 92/116/81 91/117/81
f 94/118/82 106/119/82 95/120/82
f 96/121/83 99/122/83 98/123/83 97/124/83
f 100/125/84 103/126/84 102/127/84 101/128/84
f 104/129/85 106/130/85 105/131/85
f 107/132/86 110/133/86 109/134/86 108/135/86
f 111/136/87 112/137/87 114/138/88 113/139/88
f 108/135/89 109/134/89 112/137/89 111/136/89
f 72/96/64 108/135/64 111/136/64 69/91/64
f 69/91/4 111/136/4 113/139/90 68/92/90
f 101/128/91 102/127/91 110/133/91 107/132/91
f 64/88/48 101/128/48 107/132/48 73/95/48
f 73/95/11 107/132/11 108/135/11 72/96/11
f 61/85/92 106/140/92 104/129/92
f 102/127/93 61/85/93 104/129/93 110/133/93
f 110/133/94 104/129/94 105/131/94 109/134/94
f 97/124/95 98/123/95 103/126/95 100/125/95
f 84/108/61 97/124/61 100/125/61 65/87/61
f 65/87/5 100/125/5 101/128/5 64/88/5
f 113/141/88 114/142/88 99/122/96 96/121/96
f 68/143/90 113/141/90 96/121/58 85/107/58
f 85/107/7 96/121/7 97/124/7 84/108/7
f 115/144/74 106/145/74 94/118/97
f 114/142/98 115/144/98 94/118/99 99/122/99
f 99/122/100 94/118/100 95/120/100 98/123/100
f 87/113/101 88/112/101 93/115/101 90/114/101
f 116/146/102 87/113/102 90/114/102
f 116/147/103 90/114/103 91/117/103
f 79/148/79 80/149/79 89/111/104 86/110/104
f 116/150/105 79/148/105 86/110/106
f 116/151/107 86/110/107 87/113/107
f 67/152/76 68/143/76 85/107/26 82/106/26
f 80/149/108 67/152/108 82/106/109 89/111/109
f 89/111/110 82/106/110 83/109/110 88/112/110
f 75/101/111 76/100/111 81/103/111 78/102/111
f 116/153/112 75/101/112 78/102/112
f 116/154/105 78/102/113 79/105/105
f 91/117/114 92/116/114 77/99/114 74/98/114
f 116/155/115 91/117/115 74/98/115
f 116/156/116 74/98/116 75/101/116
f 63/89/35 64/88/35 73/95/35 70/94/35
f 92/116/117 63/89/117 70/94/117 77/99/117
f 77/99/118 70/94/118 71/97/118 76/100/118
f 71/97/32 72/96/32 69/91/32 66/90/32
f 76/100/119 71/97/119 66/90/119 81/103/119
f 81/103/120 66/90/120 67/93/108 80/104/108
f 83/109/22 84/108/22 65/87/22 62/86/22
f 88/112/121 83/109/121 62/86/121 93/115/121
f 93/115/122 62/86/122 63/89/122 92/116/122
f 95/120/123 106/157/123 60/83/123
f 98/123/124 95/120/124 60/83/124 103/126/124
f 103/126/125 60/83/125 61/85/125 102/127/125
f 105/131/126 106/158/126 59/80/126
f 109/134/127 105/131/127 59/80/127 112/137/127
f 112/137/128 59/80/128 115/82/98 114/138/98
