# Blender v2.78 (sub 0) OBJ File: 'junkrat_ball.blend'
# www.blender.org
mtllib junkrat_grenade.mtl
o Submesh_15.1.B4A12BBA474C141C.002
v 0.034644 0.005170 0.002653
v 0.032948 0.005170 -0.008052
v 0.032948 0.005170 0.013359
v 0.028028 0.005170 -0.017710
v 0.028028 0.005170 0.023016
v 0.020363 0.005170 0.030681
v 0.025894 -0.008088 0.021466
v 0.010706 0.005170 0.035602
v 0.018813 -0.008088 0.028547
v 0.009891 -0.008088 0.033093
v 0.000000 0.005170 0.037297
v 0.000000 -0.008088 0.034660
v -0.010706 0.005170 0.035602
v -0.009891 -0.008088 0.033093
v -0.020363 0.005170 0.030681
v -0.018813 -0.008088 0.028547
v -0.028028 0.005170 0.023016
v -0.025894 -0.008088 0.021466
v -0.032948 0.005170 0.013359
v -0.030440 -0.008088 0.012544
v -0.034644 0.005170 0.002653
v -0.032007 -0.008088 0.002653
v -0.032948 0.005170 -0.008052
v -0.030440 -0.008088 -0.007238
v -0.028028 0.005170 -0.017710
v -0.025894 -0.008088 -0.016160
v -0.020363 0.005170 -0.025374
v -0.018813 -0.008088 -0.023241
v -0.010706 0.005170 -0.030295
v -0.009891 -0.008088 -0.027787
v 0.000000 0.005170 -0.031991
v 0.000000 -0.008088 -0.029354
v 0.010706 0.005170 -0.030295
v 0.009891 -0.008088 -0.027787
v 0.020363 0.005170 -0.025374
v 0.018813 -0.008088 -0.023241
v 0.025894 -0.008088 -0.016160
v 0.030440 -0.008088 -0.007238
v 0.032007 -0.008088 0.002653
v 0.030440 -0.008088 0.012544
v 0.023298 -0.019327 0.010223
v 0.014399 -0.019327 0.022472
v 0.007570 -0.019327 0.025951
v 0.000000 -0.019327 0.027150
v -0.007570 -0.019327 0.025951
v -0.014399 -0.019327 0.022472
v -0.023298 -0.019327 0.010223
v 0.014399 -0.019327 -0.017165
v 0.023298 -0.019327 -0.004917
v 0.018305 -0.023635 0.008601
v 0.012933 -0.026837 0.004702
v 0.005948 -0.023635 0.020958
v 0.000000 -0.023635 0.021900
v -0.005948 -0.023635 0.020958
v -0.005945 -0.026837 0.014320
v -0.011313 -0.023635 0.018224
v -0.011667 -0.026837 0.008598
v -0.018305 -0.023635 0.008601
v -0.018305 -0.023635 -0.003295
v -0.015571 -0.023635 -0.008660
v -0.011313 -0.023635 -0.012918
v 0.000000 -0.023635 -0.016594
v 0.005948 -0.023635 -0.015652
v 0.011313 -0.023635 -0.012918
v 0.011667 -0.026837 -0.003292
v 0.018305 -0.023635 -0.003295
v 0.004489 -0.028808 -0.001836
v 0.000000 -0.029474 0.002653
v -0.020363 0.005170 -0.025374
v -0.028028 0.005170 -0.017710
v -0.010706 0.005170 -0.030295
v -0.032948 0.005170 -0.008052
v 0.000000 0.005170 -0.031991
v 0.010706 0.005170 -0.030295
v 0.000000 0.018428 -0.029354
v 0.020363 0.005170 -0.025374
v 0.009891 0.018428 -0.027787
v 0.018813 0.018428 -0.023241
v 0.028028 0.005170 -0.017710
v 0.025894 0.018428 -0.016160
v 0.032948 0.005170 -0.008052
v 0.030440 0.018428 -0.007238
v 0.034644 0.005170 0.002653
v 0.032007 0.018428 0.002653
v 0.032948 0.005170 0.013359
v 0.030440 0.018428 0.012544
v 0.028028 0.005170 0.023016
v 0.025894 0.018428 0.021466
v 0.020363 0.005170 0.030681
v 0.018813 0.018428 0.028547
v 0.010706 0.005170 0.035602
v 0.009891 0.018428 0.033093
v 0.000000 0.005170 0.037297
v 0.000000 0.018428 0.034660
v -0.010706 0.005170 0.035602
v -0.009891 0.018428 0.033093
v -0.020363 0.005170 0.030681
v -0.018813 0.018428 0.028547
v -0.028028 0.005170 0.023016
v -0.025894 0.018428 0.021466
v -0.032948 0.005170 0.013359
v -0.030440 0.018428 0.012544
v -0.034644 0.005170 0.002653
v -0.032007 0.018428 0.002653
v -0.030440 0.018428 -0.007238
v -0.025894 0.018428 -0.016160
v -0.018813 0.018428 -0.023241
v -0.009891 0.018428 -0.027787
v 0.000000 0.029667 -0.021844
v 0.023298 0.029667 -0.004917
v 0.024497 0.029667 0.002653
v 0.023298 0.029667 0.010223
v 0.019819 0.029667 0.017052
v 0.007570 0.029667 0.025951
v 0.000000 0.029667 0.027150
v -0.007570 0.029667 0.025951
v -0.014399 0.029667 0.022472
v -0.019818 0.029667 0.017052
v -0.023298 0.029667 0.010223
v -0.024497 0.029667 0.002653
v -0.019819 0.029667 -0.011746
v -0.015571 0.033975 -0.008660
v -0.007570 0.029667 -0.020645
v -0.005945 0.037177 -0.009014
v 0.000000 0.033975 -0.016594
v 0.005948 0.033975 -0.015652
v 0.011313 0.033975 -0.012918
v 0.018305 0.033975 -0.003295
v 0.018305 0.033975 0.008601
v 0.011667 0.037177 0.008598
v 0.005945 0.037177 0.014320
v 0.005948 0.033975 0.020958
v -0.005948 0.033975 0.020958
v -0.011313 0.033975 0.018224
v -0.018305 0.033975 0.008601
v -0.012933 0.037177 0.004702
v -0.011667 0.037177 -0.003292
v -0.006271 0.039148 0.001660
v -0.000993 0.039148 -0.003617
v 0.000000 0.039814 0.002653
v 0.004489 0.039148 0.007142
vt 0.6084 0.1582
vt 0.5918 0.1465
vt 0.5986 0.1328
vt 0.6182 0.1392
vt 0.5676 0.0718
vt 0.5812 0.0786
vt 0.5932 0.0620
vt 0.5739 0.0522
vt 0.5739 0.1836
vt 0.5676 0.1641
vt 0.5527 0.1660
vt 0.5527 0.1865
vt 0.5933 0.0620
vt 0.6084 0.0771
vt 0.5918 0.0894
vt 0.5811 0.0786
vt 0.5933 0.1733
vt 0.5811 0.1572
vt 0.5044 0.1177
vt 0.5063 0.1328
vt 0.4873 0.1392
vt 0.4839 0.1177
vt 0.6216 0.1177
vt 0.6011 0.1177
vt 0.5986 0.1030
vt 0.6182 0.0967
vt 0.5122 0.0620
vt 0.5239 0.0786
vt 0.5137 0.0894
vt 0.4971 0.0771
vt 0.5917 0.0894
vt 0.6086 0.0771
vt 0.5527 0.0488
vt 0.5737 0.0522
vt 0.5674 0.0718
vt 0.5527 0.0693
vt 0.5043 0.1177
vt 0.5065 0.1030
vt 0.4875 0.0967
vt 0.4841 0.1177
vt 0.5378 0.1636
vt 0.5314 0.1836
vt 0.4973 0.1582
vt 0.5136 0.1460
vt 0.5065 0.1328
vt 0.4875 0.1392
vt 0.5712 0.1436
vt 0.5602 0.1406
vt 0.5137 0.1460
vt 0.5244 0.1572
vt 0.5122 0.1733
vt 0.4971 0.1582
vt 0.5312 0.0522
vt 0.5376 0.0718
vt 0.5312 0.1836
vt 0.5376 0.1636
vt 0.5451 0.0947
vt 0.5451 0.1030
vt 0.5527 0.0938
vt 0.5449 0.0947
vt 0.5376 0.1104
vt 0.5332 0.1035
vt 0.5781 0.0991
vt 0.5669 0.0986
vt 0.5988 0.1328
vt 0.5917 0.1465
vt 0.6086 0.1582
vt 0.6183 0.1392
vt 0.5136 0.0894
vt 0.5241 0.0786
vt 0.5121 0.0620
vt 0.4973 0.0771
vt 0.5378 0.0718
vt 0.5314 0.0522
vt 0.6183 0.0967
vt 0.5988 0.1030
vt 0.6010 0.1177
vt 0.6215 0.1177
vt 0.5737 0.1836
vt 0.5674 0.1641
vt 0.5244 0.1572
vt 0.5121 0.1733
vt 0.5527 0.1865
vt 0.5527 0.1660
vt 0.5527 0.0693
vt 0.5527 0.0488
vt 0.5063 0.1030
vt 0.4873 0.0967
vt 0.5585 0.1235
vt 0.5385 0.1372
vt 0.5527 0.1416
vt 0.5812 0.1572
vt 0.5932 0.1733
vt 0.5690 0.1152
vt 0.5527 0.1177
vt 0.5430 0.1479
vt 0.5527 0.1494
vt 0.5430 0.0879
vt 0.5827 0.1274
vt 0.5754 0.1255
vt 0.5666 0.1372
vt 0.5601 0.0947
vt 0.5300 0.1250
vt 0.5300 0.1104
vt 0.5226 0.1079
vt 0.5342 0.0923
vt 0.5273 0.0991
vt 0.5752 0.1255
vt 0.5825 0.1274
vt 0.5713 0.1436
vt 0.5625 0.1479
vt 0.5601 0.1406
vt 0.5601 0.1328
vt 0.5586 0.1235
vt 0.5674 0.1255
vt 0.5676 0.1255
vt 0.5712 0.0923
vt 0.5341 0.0923
vt 0.5825 0.1079
vt 0.5334 0.1318
vt 0.5378 0.1104
vt 0.5388 0.0986
vt 0.5754 0.1104
vt 0.5600 0.0947
vt 0.5429 0.0879
vt 0.5386 0.1372
vt 0.5342 0.1436
vt 0.5273 0.1362
vt 0.5298 0.1250
vt 0.5361 0.1206
vt 0.5624 0.0879
vt 0.5527 0.0859
vt 0.5601 0.1143
vt 0.5527 0.1177
vt 0.5444 0.1167
vt 0.5454 0.1406
vt 0.5688 0.1152
vt 0.5723 0.1035
vt 0.5225 0.1079
vt 0.5225 0.1274
vt 0.5827 0.1079
vn -0.9418 0.2168 -0.2571
vn -0.8752 0.3860 -0.2916
vn -0.7500 0.3751 -0.5448
vn -0.8236 0.1832 -0.5368
vn 0.2852 -0.3732 0.8828
vn 0.5441 -0.3757 0.7502
vn 0.5368 -0.1832 0.8236
vn 0.2602 -0.1721 0.9501
vn 0.3053 -0.0985 -0.9472
vn 0.2688 -0.4011 -0.8757
vn -0.0102 -0.4253 -0.9050
vn 0.0000 -0.0985 -0.9951
vn 0.3053 0.0985 -0.9472
vn -0.0437 0.2210 -0.9743
vn 0.0027 0.3761 -0.9266
vn 0.2914 0.4070 -0.8657
vn -0.9743 0.2210 0.0437
vn -0.9202 0.3911 -0.0192
vn 0.5448 0.3906 0.7420
vn 0.2985 0.3896 0.8713
vn 0.3399 0.2254 0.9130
vn 0.5858 0.0985 0.8045
vn -0.6043 0.2263 -0.7639
vn -0.5453 0.3894 -0.7423
vn -0.2977 0.3886 -0.8720
vn -0.3053 0.0985 -0.9472
vn 0.9743 0.2210 -0.0436
vn 0.9254 0.3790 0.0017
vn 0.8825 0.3761 0.2824
vn 0.9472 0.0985 0.3053
vn 0.7417 -0.3875 0.5474
vn 0.8045 -0.0985 0.5858
vn 0.7617 0.2156 -0.6110
vn 0.5396 0.2261 -0.8110
vn 0.5386 0.4240 -0.7281
vn 0.7336 0.4062 -0.5448
vn -0.9150 -0.4033 -0.0102
vn -0.8810 -0.3790 0.2830
vn -0.9501 -0.1721 0.2602
vn -0.9951 -0.0985 -0.0000
vn -0.2843 -0.4258 -0.8590
vn -0.3053 -0.0985 -0.9472
vn -0.8045 -0.0985 -0.5858
vn -0.7359 -0.4164 -0.5339
vn -0.8648 -0.4173 -0.2794
vn -0.9186 -0.1819 -0.3509
vn 0.4355 -0.6635 -0.6083
vn 0.1594 -0.8195 -0.5504
vn -0.0015 0.3787 0.9255
vn -0.2824 0.3761 0.8825
vn -0.3053 0.0985 0.9472
vn -0.0000 0.0985 0.9951
vn 0.9130 0.2254 -0.3399
vn 0.8816 0.3776 -0.2834
vn -0.5858 0.0985 0.8045
vn -0.5480 0.3736 0.7484
vn -0.1571 -0.8396 0.5200
vn -0.1048 -0.9515 0.2891
vn 0.0440 -0.8690 0.4928
vn 0.4519 0.8759 -0.1691
vn 0.3350 0.9325 0.1350
vn 0.5084 0.8477 0.1517
vn 0.0546 0.6695 -0.7408
vn 0.2203 0.8158 -0.5347
vn 0.8725 -0.3853 -0.3004
vn 0.7437 -0.3885 -0.5440
vn 0.8045 -0.0985 -0.5858
vn 0.9375 -0.2275 -0.2632
vn -0.7494 -0.3866 0.5375
vn -0.5583 -0.3881 0.7332
vn -0.6151 -0.1712 0.7697
vn -0.8045 -0.0985 0.5858
vn -0.2900 -0.3741 0.8809
vn -0.3053 -0.0985 0.9472
vn 0.9186 -0.1819 0.3509
vn 0.8731 -0.3988 0.2805
vn 0.9213 -0.3888 -0.0024
vn 0.9844 -0.1705 0.0447
vn -0.9472 0.0985 0.3053
vn -0.8797 0.3798 0.2862
vn -0.5311 -0.4187 -0.7366
vn -0.5368 -0.1832 -0.8236
vn -0.7617 0.2156 0.6110
vn -0.7496 0.3786 0.5429
vn -0.0038 -0.3762 0.9265
vn -0.0478 -0.1771 0.9830
vn 0.7472 0.3792 0.5458
vn 0.8045 0.0985 0.5858
vn 0.0647 -0.9836 -0.1681
vn -0.2988 -0.8221 -0.4847
vn -0.0507 -0.8061 -0.5896
vn 0.5473 -0.3761 -0.7476
vn 0.6151 -0.1712 -0.7697
vn 0.3310 -0.9335 0.1382
vn -0.0365 -0.9991 0.0207
vn -0.4416 0.6845 0.5801
vn -0.6062 0.6706 0.4275
vn 0.6830 0.6785 -0.2706
vn 0.6950 -0.6824 -0.2264
vn 0.5546 -0.8155 -0.1656
vn 0.3411 -0.8491 -0.4034
vn 0.3779 0.8176 -0.4343
vn -0.5681 -0.8051 -0.1708
vn -0.5204 -0.8394 0.1568
vn -0.6947 -0.6848 0.2204
vn 0.7299 0.6835 0.0046
vn 0.7132 0.6581 0.2413
vn -0.4476 0.8282 -0.3371
vn -0.6017 0.6676 -0.4384
vn -0.7120 0.7008 -0.0438
vn -0.7042 0.6680 0.2407
vn -0.5182 0.8411 0.1549
vn -0.3764 0.9231 0.0793
vn -0.1898 0.9812 0.0356
vn -0.3726 0.9116 -0.1739
vn 0.3392 -0.9239 -0.1769
vn 0.4610 -0.6952 0.5515
vn -0.4782 -0.6739 0.5632
vn -0.2621 0.6972 -0.6672
vn -0.4581 -0.8134 -0.3584
vn -0.3085 -0.9459 0.1001
vn -0.3608 -0.8259 0.4333
vn 0.4977 -0.8461 0.1909
vn 0.2103 -0.8767 0.4326
vn -0.2278 -0.6735 0.7032
vn -0.1385 0.8767 0.4606
vn -0.2239 0.6582 0.7188
vn 0.0028 0.6831 0.7303
vn 0.2001 0.8400 0.5044
vn 0.1503 0.9309 0.3328
vn 0.2190 -0.6668 0.7123
vn -0.0001 -0.6569 0.7540
vn 0.0544 0.9780 -0.2013
vn 0.0395 0.9984 0.0395
vn 0.0960 0.9893 0.1103
vn -0.2840 0.8742 0.3938
vn -0.1725 0.9118 -0.3728
vn -0.0480 0.8479 -0.5280
vn 0.5557 0.6954 0.4556
vn 0.2487 0.6911 0.6787
vn 0.7040 -0.6755 0.2195
usemtl B4A12BBA474C141C.002
f 72/1/1 105/2/2 106/3/3 70/4/4
f 10/5/5 9/6/6 6/7/7 8/8/8
f 33/9/9 34/10/10 32/11/11 31/12/12
f 74/13/13 73/14/14 75/15/15 77/16/16
f 103/17/17 104/18/18 105/2/2 72/1/1
f 90/19/19 92/20/20 91/21/21 89/22/22
f 69/23/23 107/24/24 108/25/25 71/26/26
f 83/27/27 84/28/28 86/29/29 85/30/30
f 9/6/6 7/31/31 5/32/32 6/7/7
f 79/33/33 76/34/34 78/35/35 80/36/36
f 22/37/37 20/38/38 19/39/39 21/40/40
f 31/12/12 32/11/11 30/41/41 29/42/42
f 25/43/43 26/44/44 24/45/45 23/46/46
f 34/10/10 48/47/47 63/48/48
f 94/49/49 96/50/50 95/51/51 93/52/52
f 76/34/34 74/13/13 77/16/16 78/35/35
f 81/53/53 79/33/33 80/36/36 82/54/54
f 97/55/55 95/51/51 96/50/50 98/56/56
f 54/57/57 55/58/58 53/59/59
f 128/60/60 130/61/61 129/62/62
f 77/16/16 109/63/63 126/64/64
f 38/65/65 37/66/66 4/67/67 2/68/68
f 18/69/69 16/70/70 15/71/71 17/72/72
f 15/71/71 16/70/70 14/73/73 13/74/74
f 23/46/46 24/45/45 22/37/37 21/40/40
f 3/75/75 40/76/76 39/77/77 1/78/78
f 5/32/32 7/31/31 40/76/76 3/75/75
f 103/17/17 101/79/79 102/80/80 104/18/18
f 83/27/27 81/53/53 82/54/54 84/28/28
f 29/42/42 30/41/41 28/81/81 27/82/82
f 101/79/79 99/83/83 100/84/84 102/80/80
f 1/78/78 39/77/77 38/65/65 2/68/68
f 14/73/73 12/85/85 11/86/86 13/74/74
f 91/21/21 92/20/20 94/49/49 93/52/52
f 88/87/87 90/19/19 89/22/22 87/88/88
f 27/82/82 28/81/81 26/44/44 25/43/43
f 19/39/39 20/38/38 18/69/69 17/72/72
f 87/88/88 85/30/30 86/29/29 88/87/87
f 70/4/4 106/3/3 107/24/24 69/23/23
f 11/86/86 12/85/85 10/5/5 8/8/8
f 67/89/89 61/90/90 62/91/91
f 37/66/66 36/92/92 35/93/93 4/67/67
f 98/56/56 100/84/84 99/83/83 97/55/55
f 108/25/25 75/15/15 73/14/14 71/26/26
f 35/93/93 36/92/92 34/10/10 33/9/9
f 67/89/89 51/94/94 68/95/95
f 100/84/84 98/56/56 117/96/96 118/97/97
f 82/54/54 80/36/36 110/98/98
f 49/99/99 66/100/100 64/101/101 48/47/47
f 128/60/60 110/98/98 127/102/102
f 127/102/102 110/98/98 80/36/36 78/35/35
f 59/103/103 58/104/104 47/105/105
f 47/105/105 20/38/38 22/37/37
f 84/28/28 111/106/106 112/107/107 86/29/29
f 32/11/11 34/10/10 63/48/48 62/91/91
f 122/108/108 121/109/109 120/110/110
f 120/110/110 119/111/111 135/112/112
f 136/113/113 138/114/114 137/115/115
f 120/110/110 135/112/112 136/113/113
f 67/89/89 63/48/48 64/101/101 65/116/116
f 7/31/31 9/6/6 42/117/117
f 48/47/47 37/66/66 38/65/65 49/99/99
f 18/69/69 47/105/105 46/118/118 16/70/70
f 106/3/3 105/2/2 121/109/109
f 107/24/24 121/109/109 123/119/119 108/25/25
f 38/65/65 39/77/77 49/99/99
f 28/81/81 61/90/90 60/120/120 26/44/44
f 34/10/10 36/92/92 48/47/47
f 48/47/47 64/101/101 63/48/48
f 30/41/41 32/11/11 62/91/91 61/90/90
f 58/104/104 57/121/121 55/58/58 56/122/122
f 50/123/123 42/117/117 52/124/124 51/94/94
f 28/81/81 30/41/41 61/90/90
f 106/3/3 121/109/109 107/24/24
f 105/2/2 104/18/18 120/110/110 121/109/109
f 56/122/122 54/57/57 45/125/125 46/118/118
f 133/126/126 116/127/127 115/128/128
f 129/62/62 111/106/106 110/98/98 128/60/60
f 132/129/129 131/130/130 133/126/126
f 43/131/131 10/5/5 12/85/85 44/132/132
f 116/127/127 96/50/50 94/49/49 115/128/128
f 127/102/102 126/64/64 139/133/133
f 139/133/133 140/134/134 141/135/135
f 141/135/135 130/61/61 128/60/60
f 141/135/135 138/114/114 134/136/136 133/126/126
f 68/95/95 53/59/59 55/58/58
f 54/57/57 56/122/122 55/58/58
f 55/58/58 57/121/121 68/95/95
f 123/119/119 122/108/108 124/137/137 125/138/138
f 130/61/61 131/130/130 132/129/129 113/139/139
f 114/140/140 115/128/128 94/49/49 92/20/20
f 138/114/114 140/134/134 139/133/133
f 112/107/107 111/106/106 129/62/62
f 134/136/136 135/112/112 118/97/97 117/96/96
f 53/59/59 44/132/132 45/125/125 54/57/57
f 77/16/16 75/15/15 109/63/63
f 109/63/63 125/138/138 126/64/64
f 66/100/100 50/123/123 51/94/94 65/116/116
f 48/47/47 36/92/92 37/66/66
f 98/56/56 96/50/50 116/127/127 117/96/96
f 12/85/85 14/73/73 45/125/125 44/132/132
f 24/45/45 26/44/44 60/120/120 59/103/103
f 78/35/35 77/16/16 126/64/64 127/102/102
f 90/19/19 113/139/139 114/140/140 92/20/20
f 125/138/138 109/63/63 123/119/119
f 122/108/108 137/115/115 124/137/137
f 123/119/119 121/109/109 122/108/108
f 68/95/95 57/121/121 59/103/103 60/120/120
f 114/140/140 113/139/139 132/129/129
f 112/107/107 129/62/62 113/139/139
f 130/61/61 141/135/135 131/130/130
f 120/110/110 136/113/113 137/115/115 122/108/108
f 113/139/139 129/62/62 130/61/61
f 119/111/111 120/110/110 104/18/18 102/80/80
f 119/111/111 102/80/80 100/84/84 118/97/97
f 75/15/15 108/25/25 123/119/119 109/63/63
f 88/87/87 86/29/29 112/107/107 113/139/139
f 56/122/122 46/118/118 47/105/105 58/104/104
f 139/133/133 126/64/64 125/138/138 124/137/137
f 64/101/101 66/100/100 65/116/116
f 88/87/87 113/139/139 90/19/19
f 39/77/77 40/76/76 41/141/141 49/99/99
f 16/70/70 46/118/118 45/125/125 14/73/73
f 9/6/6 10/5/5 43/131/131 42/117/117
f 59/103/103 47/105/105 22/37/37 24/45/45
f 63/48/48 67/89/89 62/91/91
f 135/112/112 119/111/111 118/97/97
f 134/136/136 136/113/113 135/112/112
f 134/136/136 117/96/96 116/127/127 133/126/126
f 43/131/131 44/132/132 53/59/59 52/124/124
f 84/28/28 82/54/54 110/98/98 111/106/106
f 139/133/133 141/135/135 128/60/60 127/102/102
f 41/141/141 50/123/123 66/100/100 49/99/99
f 132/129/129 133/126/126 115/128/128 114/140/140
f 67/89/89 65/116/116 51/94/94
f 68/95/95 60/120/120 61/90/90 67/89/89
f 131/130/130 141/135/135 133/126/126
f 140/134/134 138/114/114 141/135/135
f 136/113/113 134/136/136 138/114/114
f 43/131/131 52/124/124 42/117/117
f 50/123/123 41/141/141 42/117/117
f 68/95/95 51/94/94 52/124/124 53/59/59
f 58/104/104 59/103/103 57/121/121
f 20/38/38 47/105/105 18/69/69
f 41/141/141 40/76/76 7/31/31 42/117/117
f 138/114/114 139/133/133 124/137/137 137/115/115
