# Blender v2.78 (sub 0) OBJ File: 'mei_icicle.blend'
# www.blender.org
mtllib mei_icicle.mtl
o Submesh_0.1.81B09AB0F566B1D2
v -0.011125 -0.020923 0.199711
v -0.015164 -0.010947 0.213872
v -0.010393 -0.023783 0.177112
v -0.019394 -0.006677 0.179299
v -0.021235 -0.017072 0.063855
v -0.025464 -0.002820 0.115365
v -0.006570 -0.032630 0.133582
v -0.001790 -0.032220 0.135145
v -0.003126 -0.035179 0.047197
v -0.009497 -0.035353 0.043080
v -0.007053 -0.038762 -0.004261
v -0.026162 -0.018705 -0.006697
v -0.028448 -0.005238 0.025769
v -0.026996 0.004017 0.043880
v -0.039171 0.007560 -0.143910
v -0.040551 -0.006540 -0.190468
v -0.034463 0.009733 -0.184622
v -0.035520 -0.020495 -0.191643
v -0.024291 -0.031433 -0.134654
v -0.025858 -0.033837 -0.185836
v -0.015500 -0.042744 -0.140087
v -0.020298 -0.041161 -0.165748
v 0.010418 -0.023937 0.166551
v -0.001790 -0.032220 0.135145
v -0.003126 -0.035179 0.047197
v 0.017160 -0.018934 0.134381
v 0.020548 -0.019453 0.026012
v 0.007960 -0.030389 -0.028755
v 0.015772 -0.024153 -0.044690
v 0.010810 -0.028745 -0.065975
v 0.021699 -0.023456 -0.064807
v -0.015500 -0.042744 -0.140087
v 0.004591 -0.031464 -0.181187
v -0.013906 -0.041574 -0.168362
v 0.014214 -0.029719 -0.086786
v 0.008495 -0.030866 -0.179075
v 0.022707 -0.024774 -0.105383
v 0.029443 -0.017722 -0.104995
v 0.013769 -0.027476 -0.189407
v 0.024667 -0.016027 -0.201083
v 0.006431 0.007524 0.177980
v 0.006795 0.002226 0.231176
v 0.012741 -0.009130 0.197419
v 0.011782 0.004743 0.053031
v 0.003631 0.013228 0.087967
v 0.017337 -0.010778 0.066932
v 0.017160 -0.018934 0.134381
v 0.020548 -0.019453 0.026012
v 0.012688 0.008727 0.041093
v 0.004785 0.015399 0.071702
v 0.018228 -0.006333 0.026720
v 0.019153 -0.015871 0.006015
v 0.015772 -0.024153 -0.044690
v 0.020020 0.000203 -0.015952
v 0.012777 0.014814 -0.040372
v -0.001387 0.026929 -0.139087
v 0.025272 -0.010805 -0.038291
v 0.029703 -0.003857 -0.052028
v 0.030009 -0.012808 -0.057065
v 0.021699 -0.023456 -0.064807
v 0.029443 -0.017722 -0.104995
v 0.026578 -0.001747 -0.118620
v 0.024667 -0.016027 -0.201083
v 0.020639 -0.002530 -0.225611
v 0.021109 0.007313 -0.111031
v 0.016974 0.009023 -0.212052
v 0.012399 0.005360 -0.237886
v 0.004240 0.015578 -0.224836
v 0.009901 0.018879 -0.198779
v 0.000667 0.017262 -0.214280
v 0.009136 0.020168 -0.155655
v 0.004539 0.024466 -0.174526
v -0.001965 0.025281 -0.194593
v -0.001790 -0.032220 0.135145
v -0.010393 -0.023783 0.177112
v -0.006570 -0.032630 0.133582
v -0.003715 -0.021870 0.195437
v 0.010418 -0.023937 0.166551
v -0.005653 -0.020343 0.208860
v -0.011125 -0.020923 0.199711
v -0.015164 -0.010947 0.213872
v -0.005365 -0.004435 0.263455
v 0.008542 -0.010549 0.224000
v 0.003015 0.000854 0.245290
v 0.006795 0.002226 0.231176
v 0.012741 -0.009130 0.197419
v 0.009818 -0.012727 0.207090
v 0.010525 -0.017370 0.196474
v 0.017160 -0.018934 0.134381
v -0.020298 -0.041161 -0.165748
v -0.013906 -0.041574 -0.168362
v -0.015500 -0.042744 -0.140087
v -0.018824 -0.039341 -0.185077
v -0.024974 -0.034107 -0.198704
v -0.025858 -0.033837 -0.185836
v -0.035520 -0.020495 -0.191643
v 0.001331 -0.027507 -0.200792
v 0.004591 -0.031464 -0.181187
v -0.037129 -0.020752 -0.211704
v -0.040551 -0.006540 -0.190468
v -0.017532 -0.014515 -0.226826
v -0.026430 0.000697 -0.213140
v -0.034463 0.009733 -0.184622
v -0.008166 -0.008177 -0.243011
v -0.012399 0.008138 -0.215870
v -0.023814 0.016014 -0.193389
v -0.013955 0.019748 -0.187195
v -0.012013 0.021301 -0.198399
v -0.006977 0.012484 -0.219403
v -0.007272 0.020978 -0.213144
v -0.001965 0.025281 -0.194593
v 0.000667 0.017262 -0.214280
v 0.004240 0.015578 -0.224836
v -0.006112 0.010109 -0.241081
v 0.012399 0.005360 -0.237886
v -0.009765 0.007695 -0.236990
v -0.002522 -0.003705 -0.266313
v -0.006629 -0.006142 -0.258358
v -0.002350 -0.015164 -0.256191
v 0.001399 -0.013431 -0.263158
v 0.020639 -0.002530 -0.225611
v 0.006570 -0.028433 -0.226365
v 0.008495 -0.030866 -0.179075
v 0.013769 -0.027476 -0.189407
v 0.011846 -0.026093 -0.221931
v 0.024667 -0.016027 -0.201083
v -0.024960 0.017347 -0.155434
v -0.034463 0.009733 -0.184622
v -0.039171 0.007560 -0.143910
v -0.023814 0.016014 -0.193389
v -0.026996 0.004017 0.043880
v -0.013893 0.022194 -0.162560
v -0.013955 0.019748 -0.187195
v -0.009851 0.025540 -0.166613
v -0.012013 0.021301 -0.198399
v -0.001965 0.025281 -0.194593
v -0.001387 0.026929 -0.139087
v 0.001255 0.016330 0.065928
v 0.004785 0.015399 0.071702
v -0.001201 0.013533 0.074926
v 0.001861 0.013956 0.081169
v 0.003631 0.013228 0.087967
v -0.025464 -0.002820 0.115365
v -0.019394 -0.006677 0.179299
v -0.011888 0.000776 0.197921
v -0.015164 -0.010947 0.213872
v 0.001331 0.007227 0.198431
v 0.006431 0.007524 0.177980
v -0.006708 -0.001645 0.242586
v -0.005365 -0.004435 0.263455
v 0.003015 0.000854 0.245290
v 0.001682 0.003946 0.229386
v 0.006795 0.002226 0.231176
vt 0.9302 0.3944
vt 0.9624 0.3913
vt 0.9194 0.3868
vt 0.8550 0.5488
vt 0.8237 0.4870
vt 0.8228 0.5495
vt 0.8560 0.5920
vt 0.8765 0.3767
vt 0.8857 0.3711
vt 0.8569 0.3276
vt 0.9346 0.4995
vt 0.9229 0.5525
vt 0.9619 0.5068
vt 0.4949 0.8774
vt 0.4924 0.8638
vt 0.4390 0.8789
vt 0.4402 0.8999
vt 0.9292 0.5578
vt 0.9248 0.7119
vt 0.9824 0.5884
vt 0.9868 0.3441
vt 0.9702 0.2920
vt 0.9360 0.3204
vt 0.7666 0.2881
vt 0.7783 0.2803
vt 0.7637 0.2723
vt 0.7583 0.2858
vt 0.9971 0.3017
vt 0.9917 0.1788
vt 0.9507 0.1530
vt 0.9932 0.1514
vt 0.9268 0.2770
vt 0.7168 0.3137
vt 0.6997 0.3468
vt 0.7446 0.3540
vt 0.7510 0.3274
vt 0.8350 0.1858
vt 0.8701 0.2004
vt 0.8594 0.1686
vt 0.3062 0.9809
vt 0.3394 0.9961
vt 0.3884 0.9761
vt 0.3103 0.9590
vt 0.4321 0.9145
vt 0.4106 0.9116
vt 0.3640 0.9248
vt 0.4155 0.9326
vt 0.7524 0.3561
vt 0.7607 0.3303
vt 0.8481 0.2932
vt 0.8687 0.3191
vt 0.9761 0.3766
vt 0.8892 0.4419
vt 0.8970 0.4089
vt 0.8872 0.4053
vt 0.8809 0.4397
vt 0.9219 0.5010
vt 0.9194 0.5471
vt 0.5010 0.8843
vt 0.4163 0.8940
vt 0.4792 0.8320
vt 0.4265 0.8628
vt 0.8257 0.6123
vt 0.8325 0.6418
vt 0.8359 0.6670
vt 0.8643 0.6352
vt 0.7397 0.4004
vt 0.7290 0.4011
vt 0.7227 0.4206
vt 0.7373 0.4299
vt 0.7900 0.6509
vt 0.7510 0.6650
vt 0.7583 0.7104
vt 0.8677 0.6050
vt 0.8799 0.5906
vt 0.7690 0.3346
vt 0.7495 0.6553
vt 0.7832 0.6418
vt 0.8701 0.6499
vt 0.8276 0.2047
vt 0.9009 0.6140
vt 0.7808 0.5903
vt 0.7871 0.4702
vt 0.7881 0.4900
vt 0.8281 0.4682
vt 0.7407 0.5200
vt 0.7773 0.5144
vt 0.7612 0.5010
vt 0.9048 0.5952
vt 0.8989 0.5627
vt 0.9219 0.5622
vt 0.9141 0.7124
vt 0.8599 0.4827
vt 0.9067 0.1576
vt 0.7744 0.4736
vt 0.7490 0.4861
vt 0.9243 0.4704
vt 0.8823 0.4575
vt 0.9155 0.4775
vt 0.9258 0.4338
vt 0.8716 0.4485
vt 0.8403 0.4336
vt 0.8452 0.4075
vt 0.8521 0.3877
vt 0.8579 0.3811
vt 0.8989 0.3977
vt 0.9077 0.4184
vt 0.9419 0.4172
vt 0.8140 0.4267
vt 0.7974 0.4328
vt 0.8086 0.4482
vt 0.8071 0.4167
vt 0.8174 0.3939
vt 0.8257 0.3956
vt 0.8413 0.3452
vt 0.7583 0.4033
vt 0.8286 0.3403
vt 0.8462 0.2972
vt 0.7910 0.3432
vt 0.8101 0.2901
vt 0.8315 0.2533
vt 0.8062 0.2449
vt 0.7847 0.2394
vt 0.7759 0.2390
vt 0.7637 0.2472
vt 0.7524 0.2342
vt 0.7456 0.2640
vt 0.7363 0.2746
vt 0.9893 0.5444
vt 0.9849 0.5098
vt 0.6958 0.3929
vt 0.7524 0.4231
vt 0.8076 0.7290
vt 0.8462 0.7070
vt 0.9497 0.7129
vt 0.9702 0.7358
vt 0.9854 0.7124
vt 0.9438 0.7358
vt 0.9229 0.7295
vt 0.9150 0.7339
vt 0.9014 0.7207
vt 0.9004 0.6914
vt 0.9146 0.5559
vt 0.9385 0.4851
vt 0.9312 0.4734
vt 0.9614 0.4787
vt 0.9580 0.4873
vt 0.9858 0.4885
vt 0.8989 0.5014
vt 0.9399 0.4741
vt 0.5088 0.9365
vt 0.7666 0.7363
vt 0.5210 0.9228
vn -0.5352 -0.4722 0.7004
vn -0.6274 -0.1255 0.7685
vn -0.5595 -0.5980 0.5739
vn 0.9487 0.3161 0.0093
vn 0.7934 0.5201 -0.3163
vn 0.8436 0.5370 -0.0083
vn 0.8873 0.4590 0.0441
vn 0.0236 -0.7845 0.6197
vn -0.4323 -0.7779 0.4561
vn 0.3276 -0.9036 0.2761
vn -0.0426 0.9206 0.3882
vn -0.3315 0.9327 -0.1424
vn -0.9164 0.3426 0.2068
vn 0.2790 -0.9522 -0.1242
vn 0.5808 -0.7771 -0.2423
vn 0.6617 -0.7491 0.0310
vn 0.2268 -0.9615 -0.1553
vn -0.3206 0.9059 0.2768
vn -0.5581 0.8289 0.0380
vn -0.7352 0.6293 0.2518
vn -0.9202 -0.0664 0.3857
vn -0.9225 -0.2919 0.2527
vn -0.8734 -0.3874 0.2951
vn -0.6576 0.3814 -0.6496
vn -0.4758 0.8571 0.1973
vn -0.0376 0.9927 -0.1145
vn 0.1541 0.7724 -0.6161
vn -0.7335 0.6310 0.2524
vn -0.9400 0.3397 0.0316
vn -0.9299 -0.1500 -0.3359
vn -0.5838 0.4576 -0.6706
vn -0.8608 -0.4432 0.2502
vn 0.4313 0.3603 -0.8271
vn 0.7390 0.1915 -0.6459
vn 0.2038 -0.1771 -0.9629
vn -0.3033 0.1850 -0.9348
vn -0.5969 -0.7988 -0.0753
vn -0.7640 -0.6228 -0.1683
vn -0.7983 -0.6021 -0.0113
vn 0.4799 -0.6765 0.5586
vn 0.0235 -0.7844 0.6197
vn 0.3234 -0.9058 0.2738
vn 0.9446 -0.2278 0.2365
vn 0.3738 -0.8948 0.2442
vn 0.7780 -0.5251 0.3449
vn 0.9550 -0.2950 0.0295
vn 0.5437 -0.8234 -0.1626
vn -0.2054 -0.8186 -0.5364
vn -0.9915 -0.0896 0.0946
vn -0.1897 -0.9374 0.2920
vn -0.1925 -0.9779 -0.0816
vn -0.8130 -0.0871 0.5757
vn -0.1276 -0.8197 -0.5584
vn 0.4379 -0.3364 0.8337
vn 0.2255 -0.9364 -0.2688
vn -0.3064 -0.4787 0.8228
vn 0.6705 0.7233 0.1651
vn 0.5828 0.7776 0.2359
vn 0.0315 -0.9844 -0.1732
vn 0.6094 -0.6567 0.4442
vn 0.9015 -0.2486 -0.3543
vn 0.9713 -0.2334 0.0462
vn 0.9312 0.3168 0.1802
vn 0.9572 0.2096 0.1998
vn 0.9560 0.2916 -0.0318
vn 0.9934 -0.0566 -0.0993
vn -0.3501 -0.8757 -0.3324
vn 0.5576 -0.4498 -0.6977
vn 0.5763 -0.7793 -0.2461
vn 0.2903 -0.9487 -0.1255
vn 0.9008 0.4217 0.1036
vn 0.5914 0.7711 0.2359
vn 0.6728 0.7216 0.1632
vn 0.8685 -0.4567 -0.1927
vn 0.9918 0.0856 0.0953
vn -0.5450 -0.5848 -0.6008
vn 0.5339 0.8165 0.2198
vn 0.8709 0.4374 0.2241
vn 0.9560 -0.2917 0.0316
vn -0.0813 -0.9900 0.1153
vn 0.7804 -0.5203 0.3468
vn 0.7821 0.6232 0.0070
vn 0.1956 0.6579 -0.7272
vn 0.4491 0.8133 -0.3699
vn 0.4295 0.3482 -0.8332
vn 0.4093 0.9124 0.0002
vn 0.6607 0.7430 -0.1068
vn 0.6779 0.6806 -0.2780
vn 0.6096 -0.6571 0.4434
vn 0.9744 -0.2200 0.0471
vn -0.2228 0.9253 0.3070
vn -0.4864 0.8701 0.0792
vn 0.7400 0.1890 -0.6455
vn -0.8274 -0.5243 0.2015
vn 0.3067 0.6449 -0.7000
vn 0.1893 0.8516 -0.4888
vn 0.0235 -0.7845 0.6197
vn -0.5588 -0.5981 0.5745
vn -0.4322 -0.7781 0.4559
vn -0.2597 -0.1023 0.9603
vn -0.0785 0.1728 0.9818
vn 0.5597 0.4651 0.6858
vn 0.9213 0.2047 0.3307
vn 0.5588 -0.2361 0.7949
vn 0.9445 -0.2283 0.2361
vn -0.5960 -0.7999 -0.0706
vn 0.0699 -0.8922 -0.4461
vn -0.0707 -0.9895 0.1257
vn -0.1768 -0.7473 -0.6405
vn -0.4885 -0.5594 -0.6697
vn -0.8056 -0.5924 -0.0079
vn -0.8743 -0.4726 -0.1103
vn -0.0227 -0.6574 -0.7532
vn -0.5735 -0.2042 -0.7934
vn -0.9290 -0.1496 -0.3385
vn -0.2044 -0.1965 -0.9590
vn -0.3382 0.1572 -0.9279
vn -0.3135 0.7132 -0.6270
vn -0.5903 0.5824 -0.5588
vn -0.5878 0.4702 -0.6583
vn -0.1181 0.4409 -0.8897
vn 0.1892 0.8516 -0.4889
vn 0.1972 0.6679 -0.7176
vn -0.9139 0.0695 0.4000
vn -0.8194 0.0227 0.5728
vn 0.8995 -0.2596 -0.3516
vn 0.0375 -0.9847 -0.1704
vn 0.9215 0.2045 0.3302
vn 0.9432 -0.2342 0.2355
vn -0.4898 0.8689 -0.0711
vn 0.1893 0.8516 -0.4889
vn 0.4091 0.9125 0.0000
vn -0.6309 0.7746 -0.0447
vn 0.5637 0.4594 0.6864
vn -0.2562 -0.1086 0.9605
vn -0.4493 0.3485 0.8226
vn -0.6306 -0.1196 0.7668
vn 0.8982 -0.2600 -0.3545
vn -0.0734 -0.9889 0.1290
vn 0.0710 -0.8906 -0.4492
usemtl 81B09AB0F566B1D2
f 1/1/1 2/2/2 3/3/3
f 62/4/4 66/5/5 65/6/6 58/7/7
f 8/8/8 7/9/9 9/10/10
f 147/11/11 141/12/12 145/13/13
f 36/14/14 39/15/15 37/16/16 35/17/17
f 140/18/18 132/19/19 131/20/20
f 6/21/21 13/22/22 5/23/23
f 116/24/24 105/25/25 109/26/26 114/27/27
f 6/21/21 14/28/28 13/22/22
f 13/22/22 14/28/28 15/29/29
f 16/30/30 15/29/29 17/31/31
f 13/22/22 15/29/29 16/30/30
f 12/32/32 5/23/23 13/22/22
f 115/33/33 121/34/34 120/35/35 117/36/36
f 22/37/37 19/38/38 20/39/39
f 23/40/40 24/41/41 25/42/42
f 25/42/42 26/43/43 23/40/40
f 30/44/44 29/45/45 27/46/46 28/47/47
f 120/35/35 119/48/48 118/49/49 117/36/36
f 19/38/38 11/50/50 10/51/51 12/32/32
f 3/3/3 4/52/52 6/21/21
f 77/53/53 87/54/54 83/55/55 79/56/56
f 148/57/57 142/58/58 141/12/12 147/11/11
f 33/59/59 35/17/17 30/44/44
f 36/14/14 35/17/17 33/59/59
f 35/17/17 37/16/16 31/60/60
f 39/15/15 40/61/61 38/62/62 37/16/16
f 31/60/60 37/16/16 38/62/62
f 54/63/63 51/64/64 46/65/65 52/66/66
f 122/67/67 125/68/68 124/69/69 123/70/70
f 44/71/71 45/72/72 41/73/73
f 57/74/74 59/75/75 58/7/7 54/63/63
f 118/49/49 104/76/76 105/25/25 116/24/24
f 11/50/50 9/10/10 7/9/9 10/51/51
f 50/77/77 45/72/72 49/78/78
f 7/9/9 5/23/23 10/51/51
f 52/66/66 46/65/65 48/79/79
f 19/38/38 22/37/37 21/80/80 11/50/50
f 52/66/66 48/79/79 53/81/81
f 51/64/64 54/63/63 49/78/78
f 55/82/82 50/77/77 49/78/78
f 68/83/83 69/84/84 66/5/5 67/85/85
f 56/86/86 50/77/77 55/82/82
f 52/66/66 57/74/74 54/63/63
f 53/81/81 57/74/74 52/66/66
f 71/87/87 72/88/88 56/86/86 55/82/82
f 57/74/74 53/81/81 59/75/75
f 53/81/81 60/89/89 59/75/75
f 61/90/90 59/75/75 60/89/89
f 62/4/4 58/7/7 59/75/75
f 132/19/19 140/18/18 138/91/91 134/92/92
f 54/63/63 58/7/7 65/6/6
f 64/93/93 66/5/5 62/4/4
f 64/93/93 67/85/85 66/5/5
f 18/94/94 20/39/39 19/38/38 12/32/32
f 69/84/84 68/83/83 70/95/95
f 66/5/5 69/84/84 71/87/87
f 69/84/84 70/95/95 71/87/87
f 71/87/87 65/6/6 66/5/5
f 55/82/82 65/6/6 71/87/87
f 41/73/73 46/65/65 44/71/71
f 71/87/87 70/95/95 72/88/88
f 56/86/86 72/88/88 73/96/96
f 72/88/88 70/95/95 73/96/96
f 74/97/97 75/98/98 76/99/99
f 77/53/53 75/98/98 74/97/97
f 74/97/97 78/100/40 77/53/53
f 79/56/56 75/98/98 77/53/53
f 75/98/98 79/56/56 80/101/1
f 79/56/56 81/102/2 80/101/1
f 82/103/100 81/102/2 79/56/56
f 83/55/55 82/103/100 79/56/56
f 84/104/101 82/103/100 83/55/55
f 83/55/55 85/105/102 84/104/101
f 86/106/103 85/105/102 83/55/55
f 65/6/6 55/82/82 49/78/78 54/63/63
f 87/54/54 86/106/103 83/55/55
f 88/107/104 86/106/103 87/54/54
f 88/107/104 87/54/54 77/53/53
f 89/108/105 86/106/103 88/107/104
f 77/53/53 78/100/40 88/107/104
f 88/107/104 78/100/40 89/108/105
f 90/109/106 91/110/107 92/111/108
f 90/109/106 93/112/109 91/110/107
f 94/113/110 93/112/109 90/109/106
f 95/114/111 94/113/110 90/109/106
f 95/114/111 96/115/112 94/113/110
f 94/113/110 97/116/113 93/112/109
f 96/115/112 99/117/114 94/113/110
f 99/117/114 96/115/112 100/118/115
f 101/119/116 94/113/110 99/117/114
f 101/119/116 97/116/113 94/113/110
f 102/120/117 99/117/114 100/118/115
f 101/119/116 99/117/114 102/120/117
f 102/120/117 100/118/115 103/121/31
f 102/120/117 104/76/76 101/119/116
f 101/119/116 104/76/76 97/116/113
f 103/121/31 105/25/25 102/120/117
f 105/25/25 104/76/76 102/120/117
f 105/25/25 103/121/31 106/122/118
f 106/122/118 107/123/119 105/25/25
f 107/123/119 108/124/120 105/25/25
f 108/124/120 109/26/26 105/25/25
f 110/125/121 109/26/26 108/124/120
f 111/126/122 110/125/121 108/124/120
f 111/126/122 112/127/95 110/125/121
f 110/125/121 112/127/95 109/26/26
f 112/127/95 113/128/123 109/26/26
f 109/26/26 113/128/123 114/27/27
f 44/71/71 51/64/64 49/78/78 45/72/72
f 145/13/13 131/20/20 143/129/124 144/130/125
f 117/36/36 116/24/24 114/27/27
f 118/49/49 116/24/24 117/36/36
f 104/76/76 118/49/49 119/48/48
f 121/34/34 126/131/126 125/68/68 120/35/35
f 119/48/48 97/116/113 104/76/76
f 122/67/67 97/116/113 119/48/48
f 122/67/67 119/48/48 120/35/35
f 98/132/127 97/116/113 122/67/67
f 122/67/67 123/70/70 98/132/127
f 125/68/68 122/67/67 120/35/35
f 48/79/79 46/65/65 43/133/128 47/134/129
f 125/68/68 126/131/126 124/69/69
f 127/135/130 128/136/31 129/137/29
f 130/138/118 128/136/31 127/135/130
f 127/135/130 129/137/29 131/20/20
f 127/135/130 132/19/19 130/138/118
f 117/36/36 114/27/27 113/128/123 115/33/33
f 130/138/118 132/19/19 133/139/119
f 134/92/92 133/139/119 132/19/19
f 135/140/120 133/139/119 134/92/92
f 135/140/120 134/92/92 136/141/131
f 136/141/131 134/92/92 137/142/132
f 134/92/92 138/91/91 137/142/132
f 137/142/132 138/91/91 139/143/77
f 30/44/44 35/17/17 31/60/60 29/45/45
f 139/143/77 138/91/91 141/12/12
f 141/12/12 138/91/91 140/18/18
f 141/12/12 142/58/58 139/143/77
f 152/144/133 153/145/134 148/57/57 147/11/11
f 150/146/135 149/147/136 145/13/13 146/148/137
f 145/13/13 141/12/12 140/18/18
f 146/148/137 145/13/13 144/130/125
f 63/149/138 62/4/4 61/90/90
f 28/47/47 27/46/46 26/43/43 25/42/42
f 97/116/113 98/132/127 91/110/107 93/112/109
f 150/146/135 151/150/101 149/147/136
f 149/147/136 151/150/101 152/144/133
f 30/44/44 32/151/139 33/59/59
f 151/150/101 153/145/134 152/144/133
f 145/13/13 149/147/136 152/144/133
f 152/144/133 147/11/11 145/13/13
f 127/135/130 131/20/20 132/19/19
f 145/13/13 140/18/18 131/20/20
f 13/22/22 16/30/30 12/32/32
f 18/94/94 12/32/32 16/30/30
f 6/21/21 5/23/23 3/3/3
f 3/3/3 2/2/2 4/52/52
f 12/32/32 10/51/51 5/23/23
f 7/9/9 3/3/3 5/23/23
f 51/64/64 44/71/71 46/65/65
f 41/73/73 42/152/102 43/133/128
f 43/133/128 46/65/65 41/73/73
f 59/75/75 61/90/90 62/4/4
f 63/149/138 64/93/93 62/4/4
f 34/153/140 33/59/59 32/151/139
f 30/44/44 28/47/47 32/151/139
f 25/42/42 32/151/139 28/47/47
