# Blender v2.78 (sub 0) OBJ File: 'pharah_rocket.blend'
# www.blender.org
mtllib pharah_rocket.mtl
o Submesh_0.255.F7C8A7ACB9CE8370
v -0.001482 -0.057384 -0.007463
v 0.001284 -0.057771 0.006466
v 0.007818 -0.049787 0.005227
v 0.006325 -0.057384 0.004229
v 0.001482 -0.057384 0.007463
v -0.007463 -0.057384 0.001482
v -0.004229 -0.057384 0.006325
v -0.005227 -0.049787 0.007818
v 0.001832 -0.049787 0.009225
v -0.006325 -0.057384 -0.004229
v 0.005480 -0.057771 0.003664
v 0.004229 -0.057384 -0.006325
v -0.007818 -0.049787 -0.005227
v 0.007463 -0.057384 -0.001482
v -0.005480 -0.057771 -0.003664
v -0.003664 -0.057771 0.005480
v -0.001832 -0.049787 -0.009225
v -0.009225 -0.049787 0.001832
v -0.007511 -0.044228 0.011247
v -0.013264 -0.044228 0.002641
v -0.009068 -0.038654 0.001806
v -0.015975 -0.034871 0.003181
v 0.013546 -0.034871 0.009047
v 0.013476 0.037294 0.009000
v 0.015975 -0.034871 -0.003181
v -0.009093 -0.053386 0.013615
v 0.007547 -0.038654 -0.005045
v 0.009000 0.037294 -0.013476
v 0.009556 0.049956 0.006388
v 0.003165 0.037294 0.015894
v 0.005135 -0.038654 -0.007689
v 0.005658 0.050814 -0.008464
v 0.001984 0.050814 0.009986
v 0.002641 -0.044228 0.013264
v -0.001952 0.050814 0.009802
v -0.013615 -0.053386 -0.009093
v 0.008904 -0.038654 0.001769
v 0.009985 0.050814 -0.001984
v -0.016057 -0.053386 0.003198
v -0.005045 -0.038654 -0.007547
v -0.002641 -0.044228 -0.013264
v 0.003181 -0.034871 0.015975
v 0.013615 -0.053386 0.009093
v 0.005045 -0.038654 0.007547
v -0.005135 -0.038654 0.007689
v -0.006388 0.049956 0.009556
v -0.002754 -0.055071 0.013865
v -0.007689 -0.038654 -0.005135
v 0.011274 0.049956 -0.002240
v -0.011247 -0.044228 -0.007511
v 0.009068 -0.038654 -0.001806
v -0.003100 0.037294 0.015605
v -0.013477 0.037294 -0.009000
v 0.002240 0.049956 0.011274
v -0.009047 -0.034871 0.013546
v -0.001806 -0.038654 -0.009068
v -0.003198 -0.053386 -0.016057
v 0.016057 -0.053386 -0.003198
v 0.001769 -0.038654 -0.008904
v -0.003165 0.037294 -0.015893
v -0.009000 0.037294 0.013476
v 0.007982 -0.055071 -0.011954
v 0.015893 0.037294 -0.003165
v 0.011247 -0.044228 0.007511
v -0.002204 0.049956 0.011067
v -0.009986 0.050814 0.001984
v -0.003132 -0.053386 0.015766
v -0.011953 -0.055071 -0.007982
v 0.007511 -0.044228 -0.011247
v 0.013264 -0.044228 -0.002641
v -0.003181 -0.034871 -0.015975
v 0.006388 0.049956 -0.009556
v 0.003198 -0.053386 0.016057
v 0.007689 -0.038654 0.005135
v -0.002587 -0.044228 0.013023
v -0.007547 -0.038654 0.005045
v -0.013546 -0.034871 -0.009047
v 0.009093 -0.053386 -0.013615
v -0.001769 -0.038654 0.008904
v -0.003116 -0.034871 0.015685
v -0.008904 -0.038654 -0.001769
v 0.009047 -0.034871 -0.013546
v -0.002240 0.049956 -0.011274
v 0.001806 -0.038654 0.009068
v 0.002808 -0.055071 0.014097
v -0.015893 0.037294 0.003165
v -0.008464 0.050814 -0.005658
v -0.011274 0.049956 0.002240
v -0.009556 0.049956 -0.006388
v 0.005227 -0.049787 -0.007818
v 0.009225 -0.049787 -0.001832
v -0.007982 -0.055071 0.011953
v 0.014097 -0.055071 -0.002808
v -0.014097 -0.055071 0.002808
v -0.002808 -0.055071 -0.014097
v 0.011953 -0.055071 0.007982
v 0.003664 -0.057771 -0.005480
v -0.001284 -0.057771 -0.006466
v -0.000000 -0.049963 -0.000000
v 0.006466 -0.057771 -0.001284
v -0.006466 -0.057771 0.001284
v -0.001984 0.050814 -0.009986
v 0.008464 0.050814 0.005658
v -0.005658 0.050814 0.008464
vt 0.9746 0.7838
vt 0.9722 0.7838
vt 0.9722 0.6685
vt 0.9746 0.6685
vt 0.9722 0.0913
vt 0.9722 0.2065
vt 0.9023 0.2065
vt 0.9023 0.0913
vt 0.3613 0.7544
vt 0.3613 0.8140
vt 0.3210 0.8140
vt 0.3210 0.7544
vt 0.5029 0.8416
vt 0.4668 0.7838
vt 0.5029 0.7838
vt 0.9023 0.3223
vt 0.5425 0.3223
vt 0.5425 0.2065
vt 0.3613 0.4575
vt 0.3613 0.5168
vt 0.3210 0.5168
vt 0.3210 0.4575
vt 0.5425 0.6685
vt 0.5029 0.6106
vt 0.5425 0.5530
vt 0.9722 0.3223
vt 0.4187 0.8993
vt 0.4668 0.8993
vt 0.4668 0.9570
vt 0.4187 0.9570
vt 0.4668 0.5530
vt 0.4187 0.5530
vt 0.4187 0.4375
vt 0.4668 0.4375
vt 0.9722 0.4375
vt 0.9746 0.3223
vt 0.9746 0.4375
vt 0.5029 0.2646
vt 0.4668 0.3223
vt 0.4668 0.2065
vt 0.3613 0.6355
vt 0.3613 0.6951
vt 0.3210 0.6951
vt 0.3210 0.6355
vt 0.3613 0.5762
vt 0.3210 0.5762
vt 0.4187 0.3223
vt 0.4187 0.2065
vt 0.9722 0.8992
vt 0.9746 0.8992
vt 0.5029 0.1489
vt 0.4668 0.0913
vt 0.5029 0.0913
vt 0.9023 0.8992
vt 0.9722 0.9569
vt 0.9023 0.9569
vt 0.5425 0.4375
vt 0.9023 0.4375
vt 0.9023 0.5530
vt 0.3613 0.8734
vt 0.3210 0.8734
vt 0.5029 0.5530
vt 0.5029 0.4951
vt 0.3613 0.9329
vt 0.3210 0.9329
vt 0.5029 0.3799
vt 0.5029 0.4375
vt 0.5425 0.0913
vt 0.9023 0.6685
vt 0.5029 0.3223
vt 0.9722 0.5530
vt 0.9746 0.5530
vt 0.9023 0.0337
vt 0.9722 0.0337
vt 0.4187 0.0913
vt 0.5029 0.6685
vt 0.9746 0.0913
vt 0.9746 0.0337
vt 0.5425 0.7838
vt 0.5029 0.7261
vt 0.5425 0.0337
vt 0.9746 0.2065
vt 0.9746 0.9569
vt 0.4187 0.7838
vt 0.4187 0.6685
vt 0.4668 0.6685
vt 0.4668 0.0337
vt 0.5029 0.0337
vt 0.5029 0.8993
vt 0.5029 0.9570
vt 0.9023 0.7838
vt 0.5425 0.9570
vt 0.5425 0.8992
vt 0.4031 0.2065
vt 0.4031 0.3223
vt 0.4031 0.0913
vt 0.4031 0.0337
vt 0.4187 0.0337
vt 0.4031 0.8993
vt 0.4031 0.7838
vt 0.4031 0.6685
vt 0.4031 0.5530
vt 0.4031 0.4375
vt 0.4031 0.9570
vt 0.2778 0.1226
vt 0.2455 0.1499
vt 0.2231 0.1060
vt 0.2776 0.0601
vt 0.3552 0.2148
vt 0.3232 0.2158
vt 0.3098 0.1499
vt 0.3323 0.1055
vt 0.2324 0.2158
vt 0.2458 0.2812
vt 0.2238 0.3257
vt 0.2009 0.2163
vt 0.3328 0.3252
vt 0.2783 0.3711
vt 0.2783 0.3086
vt 0.3105 0.2808
vt 0.1569 0.3794
vt 0.1681 0.4321
vt 0.1306 0.4326
vt 0.1302 0.3579
vt 0.1573 0.4854
vt 0.1039 0.3804
vt 0.1310 0.5076
vt 0.0932 0.4336
vt 0.1044 0.4863
vt 0.1609 0.7063
vt 0.1609 0.6211
vt 0.2334 0.5610
vt 0.1909 0.5610
vt 0.2634 0.6211
vt 0.2634 0.7063
vt 0.1909 0.7662
vt 0.5029 0.2065
vt 0.3098 0.6951
vt 0.3098 0.6355
vt 0.3098 0.7544
vt 0.3098 0.9329
vt 0.3098 0.8734
vt 0.3098 0.8140
vt 0.3098 0.5762
vt 0.3098 0.5168
vt 0.3098 0.4575
vt 0.2334 0.7662
vn 0.1777 0.9771 0.1175
vn 0.7377 0.4577 0.4963
vn 0.7137 0.6441 -0.2753
vn 0.2061 0.9775 -0.0440
vn -0.3945 0.7101 0.5832
vn -0.8105 0.5059 0.2953
vn -0.9606 0.2375 0.1444
vn -0.5337 0.1771 0.8269
vn 0.0234 -0.9993 -0.0280
vn 0.0338 -0.9994 -0.0066
vn 0.5838 -0.8102 0.0529
vn 0.1082 -0.6393 -0.7613
vn 0.6264 -0.1362 0.7676
vn 0.7601 0.4592 0.4597
vn 0.7195 -0.2406 0.6514
vn -0.8667 0.1367 -0.4797
vn -0.4741 -0.2968 -0.8290
vn -0.5835 -0.8039 0.1149
vn -0.1198 -0.9927 0.0117
vn -0.0188 -0.9994 0.0280
vn -0.4507 -0.8098 0.3756
vn 0.1926 -0.1486 0.9700
vn 0.5755 -0.7997 -0.1710
vn 0.8668 -0.1248 -0.4827
vn 0.1328 -0.2745 -0.9524
vn -0.5688 0.5851 -0.5781
vn 0.0791 0.0473 0.9957
vn 0.2803 0.4106 0.8677
vn -0.1851 0.3124 0.9317
vn 0.1829 -0.2604 0.9480
vn 0.5322 0.3792 -0.7569
vn 0.8007 -0.1486 -0.5803
vn 0.1691 -0.2836 -0.9439
vn -0.1877 0.4719 -0.8614
vn -0.2250 0.6836 -0.6943
vn -0.1777 0.9771 -0.1175
vn -0.0440 0.9775 -0.2061
vn -0.9055 -0.3184 -0.2805
vn -0.7851 0.3842 -0.4859
vn -0.8887 0.4412 0.1247
vn -0.0280 -0.9993 -0.0234
vn -0.0066 -0.9994 -0.0338
vn 0.0529 -0.8102 -0.5838
vn -0.7613 -0.6393 -0.1082
vn -0.0338 -0.9994 0.0066
vn -0.5838 -0.8102 -0.0529
vn -0.5998 -0.1018 -0.7936
vn -0.8317 -0.5539 0.0370
vn 0.0854 0.5492 0.8313
vn 0.0717 0.9743 0.2136
vn -0.8299 -0.3300 0.4498
vn -0.5057 0.4317 0.7469
vn -0.4770 -0.1266 0.8698
vn 0.2619 0.0733 0.9623
vn -0.1759 0.4317 0.8847
vn -0.0063 0.1738 0.9848
vn -0.5680 -0.5034 -0.6511
vn -0.0986 0.1712 -0.9803
vn 0.6238 0.1705 -0.7628
vn 0.0280 -0.9994 0.0188
vn 0.3756 -0.8098 0.4507
vn 0.4591 -0.1433 -0.8767
vn 0.2682 -0.3297 -0.9052
vn -0.4596 -0.1473 -0.8758
vn -0.1803 -0.3740 -0.9097
vn -0.1222 -0.5778 0.8070
vn 0.9538 0.2571 -0.1555
vn -0.8254 -0.3455 -0.4466
vn 0.5590 0.5957 -0.5767
vn 0.1131 0.9785 -0.1727
vn -0.8247 -0.2670 0.4985
vn 0.9132 -0.2444 -0.3262
vn -0.1463 0.9740 0.1732
vn -0.0361 0.9809 0.1911
vn 0.3935 -0.4685 0.7910
vn 0.9438 -0.1493 0.2949
vn -0.1945 -0.0604 0.9790
vn -0.2131 0.9760 0.0455
vn 0.5739 -0.5033 0.6460
vn 0.8321 -0.5534 -0.0360
vn 0.9095 0.3907 -0.1417
vn -0.4143 -0.2286 0.8809
vn 0.3270 -0.2290 0.9169
vn 0.7912 0.2741 0.5467
vn -0.0627 -0.1626 0.9847
vn -0.1070 -0.9940 0.0217
vn -0.1025 -0.9930 -0.0593
vn -0.1035 -0.9924 0.0664
vn -0.1109 -0.8219 0.5587
vn 0.0689 -0.9932 0.0935
vn 0.0847 -0.9942 0.0660
vn 0.1135 -0.9934 -0.0140
vn 0.0660 -0.9942 -0.0847
vn -0.0144 -0.9943 -0.1057
vn 0.0910 -0.9940 0.0614
vn 0.0215 -0.9939 0.1082
vn -0.0000 -1.0000 0.0000
vn 0.1058 -0.9941 -0.0239
vn -0.0621 -0.9942 0.0882
vn 0.0615 -0.9939 -0.0911
vn -0.1082 -0.9939 0.0215
vn -0.1067 -0.9868 -0.1216
vn -0.0882 -0.9942 -0.0621
vn 0.1390 0.9898 -0.0319
vn 0.0726 0.9908 -0.1145
vn -0.1197 0.9897 -0.0784
vn 0.0815 0.9891 -0.1224
vn -0.0319 0.9894 -0.1419
vn -0.1185 0.9894 0.0844
vn -0.1198 0.9902 -0.0721
vn -0.0815 0.9891 0.1224
vn 0.1380 0.9900 -0.0301
vn -0.9349 -0.3423 0.0938
vn 0.0785 0.9908 0.1105
vn 0.0319 0.9894 0.1419
vn -0.0319 0.9902 -0.1361
vn -0.1237 0.9894 -0.0766
vn -0.0726 0.9908 0.1145
vn 0.0319 0.9902 0.1361
vn 0.1441 0.9891 -0.0291
vn 0.1419 0.9894 -0.0319
vn -0.1224 0.9891 -0.0814
vn 0.0819 0.9891 0.1220
usemtl F7C8A7ACB9CE8370

f 103/1/1 29/2/2 49/3/3 38/4/4
f 46/5/5 88/6/6 86/7/7 61/8/8
f 90/9/9 91/10/10 14/11/11 12/12/12
f 44/13/13 64/14/14 74/15/15
f 53/16/16 77/17/17 22/18/18 86/7/7
f 9/19/19 8/20/20 7/21/21 5/22/22
f 25/23/23 27/24/24 82/25/25
f 89/26/26 53/16/16 86/7/7 88/6/6
f 73/27/27 34/28/28 75/29/29 67/30/30
f 69/31/31 78/32/32 57/33/33 41/34/34
f 83/35/35 89/26/26 87/36/36 102/37/37
f 81/38/38 50/39/39 20/40/40
f 13/41/41 17/42/42 1/43/43 10/44/44
f 8/20/20 18/45/45 6/46/46 7/21/21
f 20/40/40 50/39/39 36/47/47 39/48/48
f 54/49/49 29/2/2 103/1/1 33/50/50
f 76/51/51 19/52/52 45/53/53
f 30/54/54 54/49/49 65/55/55 52/56/56
f 82/25/25 71/57/57 60/58/58 28/59/59
f 18/45/45 13/41/41 10/44/44 6/46/46
f 91/10/10 3/60/60 4/61/61 14/11/11
f 82/25/25 31/62/62 59/63/63
f 3/60/60 9/64/19 5/65/22 4/61/61
f 40/66/64 71/57/57 56/67/65
f 76/51/51 45/53/53 55/68/66
f 28/59/59 63/69/67 25/23/23 82/25/25
f 27/24/24 69/31/31 31/62/62
f 77/17/17 48/70/68 81/38/38
f 38/4/4 49/3/3 72/71/69 32/72/70
f 46/5/5 61/8/8 52/73/56 65/74/55
f 19/52/52 20/40/40 39/48/48 26/75/71
f 25/23/23 51/76/72 27/24/24
f 32/72/70 72/71/69 83/35/35 102/37/37
f 104/77/73 46/5/5 65/74/55 35/78/74
f 23/79/75 74/15/15 37/80/76
f 55/68/66 80/81/77 52/73/56 61/8/8
f 46/5/5 104/77/73 66/82/78 88/6/6
f 89/26/26 88/6/6 66/82/78 87/36/36
f 65/55/55 54/49/49 33/50/50 35/83/74
f 64/14/14 43/84/79 58/85/80 70/86/81
f 19/52/52 75/87/29 79/88/82 45/53/53
f 89/26/26 83/35/35 60/58/58 53/16/16
f 34/28/28 84/89/83 79/90/82 75/29/29
f 29/2/2 24/91/84 63/69/67 49/3/3
f 37/80/76 70/86/81 51/76/72
f 80/92/77 42/93/85 30/54/54 52/56/56
f 63/69/67 24/91/84 23/79/75 25/23/23
f 69/31/31 70/86/81 58/85/80 78/32/32
f 82/25/25 59/63/63 71/57/57
f 54/49/49 30/54/54 24/91/84 29/2/2
f 50/39/39 41/34/34 57/33/33 36/47/47
f 71/57/57 40/66/64 77/17/17
f 40/66/64 41/34/34 50/39/39
f 49/3/3 63/69/67 28/59/59 72/71/69
f 60/58/58 71/57/57 77/17/17 53/16/16
f 17/42/42 90/9/9 12/12/12 1/43/43
f 59/63/63 41/34/34 56/67/65
f 72/71/69 28/59/59 60/58/58 83/35/35
f 94/94/86 39/48/48 36/47/47 68/95/87
f 92/96/88 47/97/89 67/98/30 26/75/71
f 43/84/79 73/27/27 85/99/90 96/100/91
f 92/96/88 26/75/71 39/48/48 94/94/86
f 93/101/92 58/85/80 43/84/79 96/100/91
f 93/101/92 62/102/93 78/32/32 58/85/80
f 95/103/94 57/33/33 78/32/32 62/102/93
f 55/68/66 61/8/8 86/7/7 22/18/18
f 30/54/54 42/93/85 23/79/75 24/91/84
f 27/24/24 70/86/81 69/31/31
f 73/27/27 67/30/30 47/104/89 85/99/90
f 26/75/71 67/98/30 75/87/29 19/52/52
f 34/28/28 73/27/27 43/84/79 64/14/14
f 68/95/87 36/47/47 57/33/33 95/103/94
f 84/89/83 44/13/13 42/93/85
f 18/105/45 8/106/20 92/107/88 94/108/86
f 95/109/94 17/110/42 13/111/41 68/112/87
f 13/111/41 18/105/45 94/108/86 68/112/87
f 9/113/19 3/114/60 96/115/91 85/116/90
f 62/117/93 93/118/92 91/119/10 90/120/9
f 8/106/20 9/113/19 85/116/90 92/107/88
f 62/117/93 90/120/9 17/110/42 95/109/94
f 96/115/91 3/114/60 91/119/10 93/118/92
f 15/121/95 98/122/96 99/123/97
f 101/124/98 15/121/95 99/123/97
f 98/122/96 97/125/99 99/123/97
f 16/126/100 101/124/98 99/123/97
f 97/125/99 100/127/101 99/123/97
f 2/128/102 16/126/100 99/123/97
f 100/127/101 11/129/103 99/123/97
f 11/129/103 2/128/102 99/123/97
f 38/130/104 32/131/105 87/132/106
f 32/131/107 102/133/108 66/134/109
f 66/134/110 104/135/111 103/136/112
f 44/13/13 84/89/83 34/28/28
f 34/28/28 64/14/14 44/13/13
f 31/62/62 82/25/25 27/24/24
f 20/40/40 21/137/113 81/38/38
f 81/38/38 48/70/68 50/39/39
f 1/43/43 98/138/96 15/139/95 10/44/44
f 12/12/12 97/140/99 98/138/96 1/43/43
f 76/51/51 21/137/113 20/40/40
f 20/40/40 19/52/52 76/51/51
f 59/63/63 56/67/65 71/57/57
f 40/66/64 48/70/68 77/17/17
f 45/53/53 79/88/82 80/81/77 55/68/66
f 22/18/18 21/137/113 76/51/51
f 22/18/18 76/51/51 55/68/66
f 27/24/24 51/76/72 70/86/81
f 81/38/38 21/137/113 22/18/18
f 22/18/18 77/17/17 81/38/38
f 5/65/22 2/141/102 11/142/103 4/61/61
f 4/61/61 11/142/103 100/143/101 14/11/11
f 37/80/76 51/76/72 25/23/23
f 25/23/23 23/79/75 37/80/76
f 6/46/46 10/44/44 15/139/95 101/144/98
f 37/80/76 74/15/15 64/14/14
f 64/14/14 70/86/81 37/80/76
f 50/39/39 48/70/68 40/66/64
f 40/66/64 56/67/65 41/34/34
f 5/22/22 7/21/21 16/145/100 2/146/102
f 6/46/46 101/144/98 16/145/100 7/21/21
f 59/63/63 31/62/62 69/31/31
f 69/31/31 41/34/34 59/63/63
f 44/13/13 74/15/15 23/79/75
f 23/79/75 42/93/85 44/13/13
f 42/93/85 80/92/77 79/90/82 84/89/83
f 14/11/11 100/143/101 97/140/99 12/12/12
f 87/132/106 66/134/109 103/136/114 38/130/104
f 104/135/111 33/147/115 103/136/112
f 32/131/105 102/133/116 87/132/106
f 66/134/117 104/135/118 33/147/119
f 33/147/119 103/136/120 66/134/117
f 38/130/121 32/131/107 66/134/109
f 102/133/108 87/132/122 66/134/109
f 66/134/109 103/136/123 38/130/121
